<svg aria-hidden="true" style="position: absolute; width: 0; height: 0; overflow: hidden;" version="1.1" xmlns="http://www.w3.org/2000/svg" xmlns:xlink="http://www.w3.org/1999/xlink">
<defs>
<symbol id="iconFB" viewBox="0 0 21 32">
<path d="M17.903 0.007l-4.142-0.007c-4.654 0-7.661 3.086-7.661 7.861v3.625h-4.165c-0.36 0-0.651 0.292-0.651 0.652v5.252c0 0.36 0.292 0.651 0.651 0.651h4.165v13.252c0 0.36 0.291 0.651 0.651 0.651h5.434c0.36 0 0.651-0.292 0.651-0.651v-13.252h4.87c0.36 0 0.651-0.291 0.651-0.651l0.002-5.252c0-0.173-0.069-0.338-0.191-0.461s-0.288-0.191-0.461-0.191h-4.871v-3.073c0-1.477 0.352-2.227 2.276-2.227l2.79-0.001c0.36 0 0.651-0.292 0.651-0.651v-4.876c0-0.359-0.291-0.651-0.65-0.651z"></path>
</symbol>
<symbol id="iconInsta" viewBox="0 0 32 32">
<path fill="#d9d9d9" style="fill: var(--color2, #d9d9d9)" d="M31.904 9.403c-0.078-1.703-0.348-2.866-0.744-3.884-0.402-1.068-1.032-2.035-1.846-2.834-0.799-0.814-1.766-1.444-2.834-1.846-1.018-0.395-2.181-0.666-3.884-0.743-1.706-0.078-2.251-0.097-6.597-0.097s-4.89 0.019-6.597 0.096c-1.703 0.078-2.866 0.348-3.884 0.744-1.068 0.402-2.035 1.032-2.834 1.845-0.814 0.799-1.444 1.766-1.846 2.834-0.395 1.018-0.666 2.181-0.743 3.884-0.078 1.707-0.097 2.252-0.097 6.597s0.019 4.891 0.097 6.597c0.078 1.703 0.348 2.866 0.744 3.884 0.402 1.067 1.032 2.035 1.845 2.834 0.799 0.814 1.766 1.444 2.834 1.846 1.018 0.396 2.181 0.666 3.884 0.744 1.707 0.078 2.252 0.096 6.597 0.096s4.89-0.018 6.597-0.096c1.703-0.078 2.866-0.348 3.884-0.744 2.149-0.831 3.848-2.53 4.679-4.679 0.396-1.018 0.666-2.181 0.744-3.884 0.078-1.706 0.096-2.251 0.096-6.597s-0.019-4.89-0.096-6.597zM29.024 22.466c-0.071 1.56-0.332 2.407-0.551 2.971-0.538 1.395-1.641 2.498-3.037 3.037-0.564 0.219-1.411 0.48-2.971 0.551-1.687 0.077-2.193 0.093-6.465 0.093s-4.779-0.016-6.466-0.093c-1.56-0.071-2.407-0.332-2.971-0.551-0.695-0.257-1.323-0.666-1.84-1.197-0.532-0.516-0.94-1.145-1.197-1.84-0.219-0.564-0.48-1.411-0.551-2.971-0.077-1.687-0.093-2.193-0.093-6.465s0.016-4.778 0.093-6.466c0.071-1.56 0.332-2.407 0.551-2.971 0.257-0.695 0.666-1.324 1.197-1.84 0.516-0.532 1.145-0.94 1.84-1.197 0.564-0.219 1.411-0.48 2.971-0.551 1.687-0.077 2.193-0.093 6.465-0.093h-0c4.272 0 4.778 0.016 6.466 0.094 1.56 0.071 2.407 0.332 2.971 0.551 0.695 0.257 1.324 0.666 1.84 1.197 0.531 0.516 0.94 1.145 1.197 1.84 0.219 0.564 0.48 1.411 0.551 2.971 0.077 1.687 0.093 2.193 0.093 6.465s-0.016 4.778-0.093 6.466z"></path>
<path fill="#d9d9d9" style="fill: var(--color2, #d9d9d9)" d="M16 7.784c-4.538 0-8.216 3.679-8.216 8.216s3.678 8.216 8.216 8.216c4.538 0 8.216-3.678 8.216-8.216s-3.678-8.216-8.216-8.216zM16 21.333c-2.945-0-5.333-2.388-5.333-5.334s2.388-5.333 5.333-5.333c2.946 0 5.333 2.388 5.333 5.333s-2.388 5.334-5.334 5.334z"></path>
<path fill="#d9d9d9" style="fill: var(--color2, #d9d9d9)" d="M26.462 7.459c0 1.060-0.86 1.92-1.92 1.92s-1.92-0.86-1.92-1.92c0-1.061 0.86-1.92 1.92-1.92s1.92 0.86 1.92 1.92z"></path>
</symbol>
<symbol id="iconLogo" viewBox="0 0 109 32">
<path fill="#fff" style="fill: var(--color3, #fff)" d="M21.919 1.496c0.888 0.499 1.61 1.174 2.167 2.025 0.578 0.852 0.867 1.807 0.867 2.867s-0.66 2.275-1.981 3.646c-1.321 1.371-2.931 2.545-4.83 3.521-1.878 0.956-3.519 1.433-4.922 1.433-1.383 0-2.384-0.582-3.003-1.745-3.55 4.798-5.552 7.707-6.006 8.724 0.021 0.104 0.031 0.249 0.031 0.436 0 0.208-0.114 0.312-0.341 0.312s-0.526-0.197-0.898-0.592c-0.351-0.374-0.526-0.914-0.526-1.62 0-0.208 0.010-0.374 0.031-0.499 0.186-1.371 2.074-4.071 5.666-8.101 3.612-4.030 6.212-6.481 7.802-7.354 0.33-0.166 0.578-0.249 0.743-0.249s0.33 0.052 0.495 0.156c0.186 0.104 0.279 0.229 0.279 0.374s-0.041 0.26-0.124 0.343c-1.548 1.62-2.477 2.607-2.786 2.96l-3.684 4.3c-0.041 0.062-0.062 0.125-0.062 0.187 0 0.145 0.093 0.218 0.279 0.218 0.826 0 1.94-0.239 3.344-0.717 1.424-0.478 2.828-1.070 4.21-1.776 1.383-0.727 2.58-1.568 3.591-2.524 1.011-0.976 1.517-1.88 1.517-2.711 0-0.686-0.65-1.194-1.95-1.527s-2.704-0.499-4.21-0.499c-1.486 0-3.096 0.218-4.83 0.654-1.734 0.415-3.251 0.935-4.551 1.558-1.28 0.623-2.435 1.277-3.467 1.963-1.032 0.665-1.816 1.257-2.353 1.776-0.516 0.499-0.774 0.831-0.774 0.997 0 0.145 0.072 0.218 0.217 0.218s0.537-0.104 1.176-0.312c2.064-0.686 4.087-1.61 6.068-2.773 0.145-0.083 0.237-0.125 0.279-0.125 0.062 0 0.093 0.031 0.093 0.093 0 0.042-0.134 0.239-0.402 0.592-0.248 0.332-0.599 0.748-1.053 1.246-0.454 0.478-0.949 0.945-1.486 1.402s-1.146 0.852-1.827 1.184c-0.66 0.312-1.311 0.467-1.95 0.467-0.619 0-1.238-0.249-1.858-0.748-0.599-0.519-0.898-1.215-0.898-2.088 0-0.893 0.433-1.859 1.3-2.898s2.002-2.025 3.405-2.96c1.424-0.935 3.189-1.724 5.294-2.368s4.159-0.966 6.161-0.966c2.002 0 3.922 0.499 5.758 1.496z"></path>
<path fill="#fff" style="fill: var(--color3, #fff)" d="M21.025 20.066c0.66 0 1.476-0.436 2.446-1.309s1.476-1.475 1.517-1.807c-0.248-0.208-0.516-0.582-0.805-1.122-0.268-0.561-0.413-0.841-0.433-0.841-0.64 0.602-1.207 1.298-1.703 2.088-0.784 1.329-1.176 2.243-1.176 2.742 0 0.166 0.052 0.249 0.155 0.249zM27.712 12.432c-0.206 0-0.64 0.322-1.3 0.966-0.64 0.644-0.96 1.091-0.96 1.34 0 0.062 0.062 0.187 0.186 0.374s0.217 0.28 0.279 0.28c0.351 0 0.743-0.426 1.176-1.277 0.454-0.852 0.681-1.34 0.681-1.464 0-0.145-0.021-0.218-0.062-0.218zM27.774 16.452c0.578 0 1.476-0.353 2.693-1.059 1.238-0.706 2.322-1.412 3.251-2.119l1.393-1.091c0.186 0.145 0.279 0.322 0.279 0.53s-0.093 0.395-0.279 0.561c-3.405 3.178-5.985 4.767-7.74 4.767-0.124 0-0.31-0.021-0.557-0.062-2.332 2.721-4.334 4.082-6.006 4.082-1.115-0.166-1.816-0.561-2.105-1.184-0.165-0.312-0.248-0.706-0.248-1.184 0-1.371 0.784-3.002 2.353-4.892 1.569-1.911 3.54-3.313 5.913-4.206 0.206 0 0.361 0.052 0.464 0.156 0.103 0.083 0.196 0.135 0.279 0.156 0.083 0 0.186-0.042 0.31-0.125 0.144-0.104 0.33-0.156 0.557-0.156 0.227-0.021 0.464 0.104 0.712 0.374 0.33 0.27 0.495 0.602 0.495 0.997 0 1.163-0.588 2.648-1.765 4.456z"></path>
<path fill="#fff" style="fill: var(--color3, #fff)" d="M30.912 15.611c1.135-0.789 2.322-1.641 3.56-2.555-0.66-0.457-1.084-0.904-1.269-1.34-0.062-0.145-0.093-0.249-0.093-0.312 0-0.415 0.134-0.685 0.402-0.81 0.268-0.145 0.702-0.218 1.3-0.218 0.227 0 0.898 0.28 2.012 0.841s1.816 0.841 2.105 0.841c0.31 0 0.733-0.083 1.269-0.249 0.537-0.187 0.96-0.28 1.269-0.28 0.33 0 0.568 0.073 0.712 0.218 0.516 0.685 0.774 1.101 0.774 1.246s-0.072 0.27-0.217 0.374c-0.124 0.083-0.547 0.374-1.269 0.872-0.702 0.499-1.393 1.007-2.074 1.527s-1.321 1.101-1.919 1.745c-0.599 0.644-0.898 1.163-0.898 1.558 0 0.062 0.052 0.093 0.155 0.093 1.114 0 4.871-2.275 11.269-6.824 0.145 0 0.217 0.135 0.217 0.405 0 0.249-0.815 1.143-2.446 2.68-1.63 1.516-3.478 3.012-5.542 4.487-2.043 1.454-3.529 2.181-4.458 2.181-1.445 0-2.167-0.727-2.167-2.181 0-0.789 0.258-1.548 0.774-2.275 0.537-0.748 1.651-1.745 3.344-2.991-0.351 0-0.826-0.083-1.424-0.249-0.599-0.187-0.98-0.405-1.146-0.654-0.537 0.478-1.465 1.277-2.786 2.399-0.31 0.229-0.712 0.343-1.207 0.343s-0.743-0.073-0.743-0.218c0-0.166 0.165-0.384 0.495-0.654z"></path>
<path fill="#fff" style="fill: var(--color3, #fff)" d="M48.745 20.129l0.248-1.994c0-0.062-0.021-0.093-0.062-0.093-0.021 0-0.072 0.042-0.155 0.125-0.268 0.291-0.609 0.654-1.022 1.091-0.413 0.415-1.125 0.987-2.136 1.714-0.991 0.706-1.796 1.059-2.415 1.059-0.103-0.021-0.227-0.062-0.371-0.125-0.165-0.042-0.371-0.208-0.619-0.499s-0.371-0.706-0.371-1.246c0-0.54 0.413-1.361 1.238-2.462 0.805-1.122 1.775-2.212 2.91-3.272 1.135-1.080 2.394-2.015 3.777-2.804 1.404-0.789 2.621-1.184 3.653-1.184 0.392 0.021 0.702 0.301 0.929 0.841 0.206-0.208 0.392-0.312 0.557-0.312s0.361 0.125 0.588 0.374c0.124 0.021 0.248 0.093 0.371 0.218 0.124 0.104 0.186 0.26 0.186 0.467s-0.144 0.436-0.433 0.686c-0.433 0.54-0.939 1.153-1.517 1.838s-0.991 1.184-1.238 1.496c-0.248 0.291-0.506 0.623-0.774 0.997-0.454 0.644-0.702 1.163-0.743 1.558 2.105-1.018 5.418-3.209 9.938-6.575 0.186 0.145 0.279 0.322 0.279 0.53s-0.083 0.384-0.248 0.53c-0.165 0.145-0.372 0.322-0.619 0.53-0.227 0.208-0.691 0.613-1.393 1.215s-1.383 1.184-2.043 1.745c-0.64 0.54-1.383 1.153-2.229 1.838-0.826 0.665-1.569 1.236-2.229 1.714-1.589 1.142-2.58 1.714-2.972 1.714s-0.671-0.125-0.836-0.374-0.248-0.696-0.248-1.34zM45.587 18.82c0.248 0 1.001-0.509 2.26-1.527 1.28-1.018 2.487-2.036 3.622-3.054l1.734-1.527c0.083-0.083 0.124-0.135 0.124-0.156 0-0.042-0.031-0.062-0.093-0.062-0.784 0-1.806 0.457-3.065 1.371-1.259 0.893-2.353 1.849-3.282 2.867-0.908 0.997-1.362 1.672-1.362 2.025 0 0.042 0.021 0.062 0.062 0.062z"></path>
<path fill="#fff" style="fill: var(--color3, #fff)" d="M64.957 6.232c-0.289 0-0.795-0.28-1.517-0.841-0.743-0.561-1.114-1.018-1.114-1.371s0.248-0.623 0.743-0.81c0.949-0.415 1.909-0.737 2.879-0.966l0.464-0.093c0.103-0.042 0.196-0.062 0.279-0.062 0.144 0 0.217 0.083 0.217 0.249 0 0.145 0.083 0.218 0.248 0.218s0.918-0.145 2.26-0.436c4.025-0.831 7.833-1.246 11.424-1.246 2.105 0 3.89 0.26 5.356 0.779 1.485 0.499 2.229 1.215 2.229 2.15 0 0.208-0.289 0.312-0.867 0.312-0.557 0-1.238 0.010-2.044 0.031-0.784 0.021-1.775 0.052-2.972 0.093-2.807 0.125-4.211 0.405-4.211 0.841 0 0.083 0.021 0.145 0.062 0.187 0 0.104-0.114 0.28-0.341 0.53-0.227 0.229-0.578 0.602-1.052 1.122s-1.363 1.516-2.662 2.991c-1.3 1.454-2.497 2.825-3.591 4.113-2.828 3.365-4.778 5.962-5.851 7.79-0.062 0.706-0.268 1.059-0.619 1.059-0.268 0-0.619-0.208-1.053-0.623-0.454-0.415-0.681-0.924-0.681-1.527 0-1.122 0.836-2.7 2.508-4.736s4.974-5.307 9.907-9.815c0.227-0.229 0.434-0.415 0.619-0.561 0.29-0.229 0.434-0.364 0.434-0.405s-0.062-0.062-0.186-0.062c-0.124 0-0.371 0.021-0.743 0.062l-9.474 0.935c-0.144 0.062-0.361 0.093-0.65 0.093z"></path>
<path fill="#fff" style="fill: var(--color3, #fff)" d="M73.085 15.611c1.135-0.789 2.322-1.641 3.56-2.555-0.66-0.457-1.084-0.904-1.269-1.34-0.063-0.145-0.093-0.249-0.093-0.312 0-0.415 0.134-0.685 0.403-0.81 0.268-0.145 0.701-0.218 1.3-0.218 0.227 0 0.897 0.28 2.012 0.841s1.816 0.841 2.105 0.841c0.31 0 0.732-0.083 1.269-0.249 0.537-0.187 0.96-0.28 1.27-0.28 0.33 0 0.568 0.073 0.712 0.218 0.516 0.685 0.774 1.101 0.774 1.246s-0.072 0.27-0.217 0.374c-0.124 0.083-0.547 0.374-1.27 0.872-0.702 0.499-1.393 1.007-2.074 1.527s-1.321 1.101-1.919 1.745c-0.599 0.644-0.898 1.163-0.898 1.558 0 0.062 0.051 0.093 0.155 0.093 1.115 0 4.871-2.275 11.269-6.824 0.144 0 0.217 0.135 0.217 0.405 0 0.249-0.815 1.143-2.445 2.68-1.63 1.516-3.478 3.012-5.542 4.487-2.044 1.454-3.53 2.181-4.458 2.181-1.444 0-2.167-0.727-2.167-2.181 0-0.789 0.258-1.548 0.774-2.275 0.537-0.748 1.651-1.745 3.344-2.991-0.35 0-0.825-0.083-1.424-0.249-0.599-0.187-0.981-0.405-1.146-0.654-0.537 0.478-1.465 1.277-2.786 2.399-0.309 0.229-0.712 0.343-1.207 0.343s-0.743-0.073-0.743-0.218c0-0.166 0.165-0.384 0.495-0.654z"></path>
<path fill="#fff" style="fill: var(--color3, #fff)" d="M96.275 6.014c0.206 0 0.341 0.042 0.403 0.125 0.289 0.353 0.433 0.644 0.433 0.872 0 0.208-0.062 0.395-0.185 0.561-0.124 0.145-0.279 0.322-0.464 0.53-0.165 0.187-0.516 0.457-1.053 0.81-0.516 0.332-1.022 0.499-1.517 0.499-0.371-0.062-0.557-0.291-0.557-0.685 0-0.623 0.371-1.226 1.115-1.807 0.743-0.602 1.351-0.904 1.826-0.904zM88.845 18.29c-0.165 0.291-0.248 0.55-0.248 0.779s0.124 0.343 0.371 0.343c0.144 0 0.392-0.062 0.743-0.187 3.859-2.036 7.636-4.435 11.331-7.198 0.185 0.145 0.278 0.322 0.278 0.53s-0.103 0.405-0.31 0.592c-0.206 0.187-0.505 0.457-0.897 0.81-0.372 0.353-1.094 0.987-2.167 1.901s-2.075 1.745-3.004 2.493c-2.435 1.973-4.231 3.137-5.386 3.49-0.372 0.104-0.774 0.156-1.208 0.156-1.589 0-2.384-0.852-2.384-2.555 0-0.665 0.361-1.61 1.084-2.835 0.723-1.246 1.465-2.337 2.229-3.272 0.764-0.956 1.27-1.485 1.517-1.589 0.371-0.228 0.774-0.343 1.207-0.343s0.846 0.083 1.238 0.249c0.124 0.062 0.186 0.145 0.186 0.249s-0.103 0.26-0.31 0.467c-0.186 0.208-0.485 0.53-0.898 0.966-0.392 0.436-0.99 1.194-1.796 2.275-0.784 1.059-1.311 1.953-1.578 2.68z"></path>
<path fill="#fff" style="fill: var(--color3, #fff)" d="M98.652 20.502c0.682 0 1.713-0.395 3.096-1.184 1.404-0.81 2.652-1.683 3.746-2.617 1.115-0.935 1.672-1.589 1.672-1.963 0-0.062-0.031-0.093-0.093-0.093-0.454 0-1.414 0.467-2.879 1.402-1.444 0.914-2.786 1.849-4.025 2.804-1.238 0.935-1.858 1.444-1.858 1.527s0.113 0.125 0.34 0.125zM106.516 7.353c0.227 0 0.475 0.177 0.743 0.53 0.268 0.332 0.402 0.582 0.402 0.748s-0.031 0.28-0.092 0.343c-1.424 1.246-2.807 2.555-4.149 3.926s-2.332 2.43-2.972 3.178l-0.929 1.122c-0.165 0.166-0.248 0.28-0.248 0.343s0.021 0.094 0.063 0.094c0.041 0 0.092-0.031 0.155-0.094l0.278-0.218c3.385-3.033 6.016-4.549 7.894-4.549 0.248 0 0.475 0.073 0.682 0.218 0.702 0.582 1.052 1.246 1.052 1.994 0 0.727-0.526 1.662-1.579 2.804-1.031 1.142-2.311 2.15-3.838 3.022-1.528 0.852-2.807 1.278-3.839 1.278-1.011 0-1.682-0.27-2.012-0.81l-0.341-0.499c-0.020-0.021-0.051-0.031-0.092-0.031-0.454 0-1.951 1.454-4.49 4.362-2.559 2.908-4.199 5.017-4.922 6.325-0.083 0.374-0.248 0.561-0.496 0.561-0.124 0-0.237-0.042-0.34-0.125l-1.393-1.091c-0.083-0.042-0.124-0.135-0.124-0.28 0-0.249 1.569-2.295 4.706-6.138 3.116-3.822 6.387-7.613 9.814-11.373s5.449-5.64 6.068-5.64z"></path>
</symbol>
<symbol id="iconLogoFooter" viewBox="0 0 109 32">
<path fill="#FF7474" style="fill: var(--color3, #FF7474)" d="M21.919 1.496c0.888 0.499 1.61 1.174 2.167 2.025 0.578 0.852 0.867 1.807 0.867 2.867s-0.66 2.275-1.981 3.646c-1.321 1.371-2.931 2.545-4.83 3.521-1.878 0.956-3.519 1.433-4.922 1.433-1.383 0-2.384-0.582-3.003-1.745-3.55 4.798-5.552 7.707-6.006 8.724 0.021 0.104 0.031 0.249 0.031 0.436 0 0.208-0.114 0.312-0.341 0.312s-0.526-0.197-0.898-0.592c-0.351-0.374-0.526-0.914-0.526-1.62 0-0.208 0.010-0.374 0.031-0.499 0.186-1.371 2.074-4.071 5.666-8.101 3.612-4.030 6.212-6.481 7.802-7.354 0.33-0.166 0.578-0.249 0.743-0.249s0.33 0.052 0.495 0.156c0.186 0.104 0.279 0.229 0.279 0.374s-0.041 0.26-0.124 0.343c-1.548 1.62-2.477 2.607-2.786 2.96l-3.684 4.3c-0.041 0.062-0.062 0.125-0.062 0.187 0 0.145 0.093 0.218 0.279 0.218 0.826 0 1.94-0.239 3.344-0.717 1.424-0.478 2.828-1.070 4.21-1.776 1.383-0.727 2.58-1.568 3.591-2.524 1.011-0.976 1.517-1.88 1.517-2.711 0-0.686-0.65-1.194-1.95-1.527s-2.704-0.499-4.21-0.499c-1.486 0-3.096 0.218-4.83 0.654-1.734 0.415-3.251 0.935-4.551 1.558-1.28 0.623-2.435 1.277-3.467 1.963-1.032 0.665-1.816 1.257-2.353 1.776-0.516 0.499-0.774 0.831-0.774 0.997 0 0.145 0.072 0.218 0.217 0.218s0.537-0.104 1.176-0.312c2.064-0.686 4.087-1.61 6.068-2.773 0.145-0.083 0.237-0.125 0.279-0.125 0.062 0 0.093 0.031 0.093 0.093 0 0.042-0.134 0.239-0.402 0.592-0.248 0.332-0.599 0.748-1.053 1.246-0.454 0.478-0.949 0.945-1.486 1.402s-1.146 0.852-1.827 1.184c-0.66 0.312-1.311 0.467-1.95 0.467-0.619 0-1.238-0.249-1.858-0.748-0.599-0.519-0.898-1.215-0.898-2.088 0-0.893 0.433-1.859 1.3-2.898s2.002-2.025 3.405-2.96c1.424-0.935 3.189-1.724 5.294-2.368s4.159-0.966 6.161-0.966c2.002 0 3.922 0.499 5.758 1.496z"></path>
<path fill="#FF7474" style="fill: var(--color3, #FF7474)" d="M21.025 20.066c0.66 0 1.476-0.436 2.446-1.309s1.476-1.475 1.517-1.807c-0.248-0.208-0.516-0.582-0.805-1.122-0.268-0.561-0.413-0.841-0.433-0.841-0.64 0.602-1.207 1.298-1.703 2.088-0.784 1.329-1.176 2.243-1.176 2.742 0 0.166 0.052 0.249 0.155 0.249zM27.712 12.432c-0.206 0-0.64 0.322-1.3 0.966-0.64 0.644-0.96 1.091-0.96 1.34 0 0.062 0.062 0.187 0.186 0.374s0.217 0.28 0.279 0.28c0.351 0 0.743-0.426 1.176-1.277 0.454-0.852 0.681-1.34 0.681-1.464 0-0.145-0.021-0.218-0.062-0.218zM27.774 16.452c0.578 0 1.476-0.353 2.693-1.059 1.238-0.706 2.322-1.412 3.251-2.119l1.393-1.091c0.186 0.145 0.279 0.322 0.279 0.53s-0.093 0.395-0.279 0.561c-3.405 3.178-5.985 4.767-7.74 4.767-0.124 0-0.31-0.021-0.557-0.062-2.332 2.721-4.334 4.082-6.006 4.082-1.115-0.166-1.816-0.561-2.105-1.184-0.165-0.312-0.248-0.706-0.248-1.184 0-1.371 0.784-3.002 2.353-4.892 1.569-1.911 3.54-3.313 5.913-4.206 0.206 0 0.361 0.052 0.464 0.156 0.103 0.083 0.196 0.135 0.279 0.156 0.083 0 0.186-0.042 0.31-0.125 0.144-0.104 0.33-0.156 0.557-0.156 0.227-0.021 0.464 0.104 0.712 0.374 0.33 0.27 0.495 0.602 0.495 0.997 0 1.163-0.588 2.648-1.765 4.456z"></path>
<path fill="#FF7474" style="fill: var(--color3, #FF7474)" d="M30.912 15.611c1.135-0.789 2.322-1.641 3.56-2.555-0.66-0.457-1.084-0.904-1.269-1.34-0.062-0.145-0.093-0.249-0.093-0.312 0-0.415 0.134-0.685 0.402-0.81 0.268-0.145 0.702-0.218 1.3-0.218 0.227 0 0.898 0.28 2.012 0.841s1.816 0.841 2.105 0.841c0.31 0 0.733-0.083 1.269-0.249 0.537-0.187 0.96-0.28 1.269-0.28 0.33 0 0.568 0.073 0.712 0.218 0.516 0.685 0.774 1.101 0.774 1.246s-0.072 0.27-0.217 0.374c-0.124 0.083-0.547 0.374-1.269 0.872-0.702 0.499-1.393 1.007-2.074 1.527s-1.321 1.101-1.919 1.745c-0.599 0.644-0.898 1.163-0.898 1.558 0 0.062 0.052 0.093 0.155 0.093 1.114 0 4.871-2.275 11.269-6.824 0.145 0 0.217 0.135 0.217 0.405 0 0.249-0.815 1.143-2.446 2.68-1.63 1.516-3.478 3.012-5.542 4.487-2.043 1.454-3.529 2.181-4.458 2.181-1.445 0-2.167-0.727-2.167-2.181 0-0.789 0.258-1.548 0.774-2.275 0.537-0.748 1.651-1.745 3.344-2.991-0.351 0-0.826-0.083-1.424-0.249-0.599-0.187-0.98-0.405-1.146-0.654-0.537 0.478-1.465 1.277-2.786 2.399-0.31 0.229-0.712 0.343-1.207 0.343s-0.743-0.073-0.743-0.218c0-0.166 0.165-0.384 0.495-0.654z"></path>
<path fill="#FF7474" style="fill: var(--color3, #FF7474)" d="M48.745 20.129l0.248-1.994c0-0.062-0.021-0.093-0.062-0.093-0.021 0-0.072 0.042-0.155 0.125-0.268 0.291-0.609 0.654-1.022 1.091-0.413 0.415-1.125 0.987-2.136 1.714-0.991 0.706-1.796 1.059-2.415 1.059-0.103-0.021-0.227-0.062-0.371-0.125-0.165-0.042-0.371-0.208-0.619-0.499s-0.371-0.706-0.371-1.246c0-0.54 0.413-1.361 1.238-2.462 0.805-1.122 1.775-2.212 2.91-3.272 1.135-1.080 2.394-2.015 3.777-2.804 1.404-0.789 2.621-1.184 3.653-1.184 0.392 0.021 0.702 0.301 0.929 0.841 0.206-0.208 0.392-0.312 0.557-0.312s0.361 0.125 0.588 0.374c0.124 0.021 0.248 0.093 0.371 0.218 0.124 0.104 0.186 0.26 0.186 0.467s-0.144 0.436-0.433 0.686c-0.433 0.54-0.939 1.153-1.517 1.838s-0.991 1.184-1.238 1.496c-0.248 0.291-0.506 0.623-0.774 0.997-0.454 0.644-0.702 1.163-0.743 1.558 2.105-1.018 5.418-3.209 9.938-6.575 0.186 0.145 0.279 0.322 0.279 0.53s-0.083 0.384-0.248 0.53c-0.165 0.145-0.372 0.322-0.619 0.53-0.227 0.208-0.691 0.613-1.393 1.215s-1.383 1.184-2.043 1.745c-0.64 0.54-1.383 1.153-2.229 1.838-0.826 0.665-1.569 1.236-2.229 1.714-1.589 1.142-2.58 1.714-2.972 1.714s-0.671-0.125-0.836-0.374-0.248-0.696-0.248-1.34zM45.587 18.82c0.248 0 1.001-0.509 2.26-1.527 1.28-1.018 2.487-2.036 3.622-3.054l1.734-1.527c0.083-0.083 0.124-0.135 0.124-0.156 0-0.042-0.031-0.062-0.093-0.062-0.784 0-1.806 0.457-3.065 1.371-1.259 0.893-2.353 1.849-3.282 2.867-0.908 0.997-1.362 1.672-1.362 2.025 0 0.042 0.021 0.062 0.062 0.062z"></path>
<path fill="#FF7474" style="fill: var(--color3, #FF7474)" d="M64.957 6.232c-0.289 0-0.795-0.28-1.517-0.841-0.743-0.561-1.114-1.018-1.114-1.371s0.248-0.623 0.743-0.81c0.949-0.415 1.909-0.737 2.879-0.966l0.464-0.093c0.103-0.042 0.196-0.062 0.279-0.062 0.144 0 0.217 0.083 0.217 0.249 0 0.145 0.083 0.218 0.248 0.218s0.918-0.145 2.26-0.436c4.025-0.831 7.833-1.246 11.424-1.246 2.105 0 3.89 0.26 5.356 0.779 1.485 0.499 2.229 1.215 2.229 2.15 0 0.208-0.289 0.312-0.867 0.312-0.557 0-1.238 0.010-2.044 0.031-0.784 0.021-1.775 0.052-2.972 0.093-2.807 0.125-4.211 0.405-4.211 0.841 0 0.083 0.021 0.145 0.062 0.187 0 0.104-0.114 0.28-0.341 0.53-0.227 0.229-0.578 0.602-1.052 1.122s-1.363 1.516-2.662 2.991c-1.3 1.454-2.497 2.825-3.591 4.113-2.828 3.365-4.778 5.962-5.851 7.79-0.062 0.706-0.268 1.059-0.619 1.059-0.268 0-0.619-0.208-1.053-0.623-0.454-0.415-0.681-0.924-0.681-1.527 0-1.122 0.836-2.7 2.508-4.736s4.974-5.307 9.907-9.815c0.227-0.229 0.434-0.415 0.619-0.561 0.29-0.229 0.434-0.364 0.434-0.405s-0.062-0.062-0.186-0.062c-0.124 0-0.371 0.021-0.743 0.062l-9.474 0.935c-0.144 0.062-0.361 0.093-0.65 0.093z"></path>
<path fill="#FF7474" style="fill: var(--color3, #FF7474)" d="M73.085 15.611c1.135-0.789 2.322-1.641 3.56-2.555-0.66-0.457-1.084-0.904-1.269-1.34-0.063-0.145-0.093-0.249-0.093-0.312 0-0.415 0.134-0.685 0.403-0.81 0.268-0.145 0.701-0.218 1.3-0.218 0.227 0 0.897 0.28 2.012 0.841s1.816 0.841 2.105 0.841c0.31 0 0.732-0.083 1.269-0.249 0.537-0.187 0.96-0.28 1.27-0.28 0.33 0 0.568 0.073 0.712 0.218 0.516 0.685 0.774 1.101 0.774 1.246s-0.072 0.27-0.217 0.374c-0.124 0.083-0.547 0.374-1.27 0.872-0.702 0.499-1.393 1.007-2.074 1.527s-1.321 1.101-1.919 1.745c-0.599 0.644-0.898 1.163-0.898 1.558 0 0.062 0.051 0.093 0.155 0.093 1.115 0 4.871-2.275 11.269-6.824 0.144 0 0.217 0.135 0.217 0.405 0 0.249-0.815 1.143-2.445 2.68-1.63 1.516-3.478 3.012-5.542 4.487-2.044 1.454-3.53 2.181-4.458 2.181-1.444 0-2.167-0.727-2.167-2.181 0-0.789 0.258-1.548 0.774-2.275 0.537-0.748 1.651-1.745 3.344-2.991-0.35 0-0.825-0.083-1.424-0.249-0.599-0.187-0.981-0.405-1.146-0.654-0.537 0.478-1.465 1.277-2.786 2.399-0.309 0.229-0.712 0.343-1.207 0.343s-0.743-0.073-0.743-0.218c0-0.166 0.165-0.384 0.495-0.654z"></path>
<path fill="#FF7474" style="fill: var(--color3, #FF7474)" d="M96.275 6.014c0.206 0 0.341 0.042 0.403 0.125 0.289 0.353 0.433 0.644 0.433 0.872 0 0.208-0.062 0.395-0.185 0.561-0.124 0.145-0.279 0.322-0.464 0.53-0.165 0.187-0.516 0.457-1.053 0.81-0.516 0.332-1.022 0.499-1.517 0.499-0.371-0.062-0.557-0.291-0.557-0.685 0-0.623 0.371-1.226 1.115-1.807 0.743-0.602 1.351-0.904 1.826-0.904zM88.845 18.29c-0.165 0.291-0.248 0.55-0.248 0.779s0.124 0.343 0.371 0.343c0.144 0 0.392-0.062 0.743-0.187 3.859-2.036 7.636-4.435 11.331-7.198 0.185 0.145 0.278 0.322 0.278 0.53s-0.103 0.405-0.31 0.592c-0.206 0.187-0.505 0.457-0.897 0.81-0.372 0.353-1.094 0.987-2.167 1.901s-2.075 1.745-3.004 2.493c-2.435 1.973-4.231 3.137-5.386 3.49-0.372 0.104-0.774 0.156-1.208 0.156-1.589 0-2.384-0.852-2.384-2.555 0-0.665 0.361-1.61 1.084-2.835 0.723-1.246 1.465-2.337 2.229-3.272 0.764-0.956 1.27-1.485 1.517-1.589 0.371-0.228 0.774-0.343 1.207-0.343s0.846 0.083 1.238 0.249c0.124 0.062 0.186 0.145 0.186 0.249s-0.103 0.26-0.31 0.467c-0.186 0.208-0.485 0.53-0.898 0.966-0.392 0.436-0.99 1.194-1.796 2.275-0.784 1.059-1.311 1.953-1.578 2.68z"></path>
<path fill="#FF7474" style="fill: var(--color3, #FF7474)" d="M98.652 20.502c0.682 0 1.713-0.395 3.096-1.184 1.404-0.81 2.652-1.683 3.746-2.617 1.115-0.935 1.672-1.589 1.672-1.963 0-0.062-0.031-0.093-0.093-0.093-0.454 0-1.414 0.467-2.879 1.402-1.444 0.914-2.786 1.849-4.025 2.804-1.238 0.935-1.858 1.444-1.858 1.527s0.113 0.125 0.34 0.125zM106.516 7.353c0.227 0 0.475 0.177 0.743 0.53 0.268 0.332 0.402 0.582 0.402 0.748s-0.031 0.28-0.092 0.343c-1.424 1.246-2.807 2.555-4.149 3.926s-2.332 2.43-2.972 3.178l-0.929 1.122c-0.165 0.166-0.248 0.28-0.248 0.343s0.021 0.094 0.063 0.094c0.041 0 0.092-0.031 0.155-0.094l0.278-0.218c3.385-3.033 6.016-4.549 7.894-4.549 0.248 0 0.475 0.073 0.682 0.218 0.702 0.582 1.052 1.246 1.052 1.994 0 0.727-0.526 1.662-1.579 2.804-1.031 1.142-2.311 2.15-3.838 3.022-1.528 0.852-2.807 1.278-3.839 1.278-1.011 0-1.682-0.27-2.012-0.81l-0.341-0.499c-0.020-0.021-0.051-0.031-0.092-0.031-0.454 0-1.951 1.454-4.49 4.362-2.559 2.908-4.199 5.017-4.922 6.325-0.083 0.374-0.248 0.561-0.496 0.561-0.124 0-0.237-0.042-0.34-0.125l-1.393-1.091c-0.083-0.042-0.124-0.135-0.124-0.28 0-0.249 1.569-2.295 4.706-6.138 3.116-3.822 6.387-7.613 9.814-11.373s5.449-5.64 6.068-5.64z"></path>
</symbol>
<symbol id="iconPlayRed" viewBox="0 0 32 32">
<path fill="none" stroke="#ff7474" style="stroke: var(--color4, #ff7474)" stroke-linejoin="miter" stroke-linecap="butt" stroke-miterlimit="4" stroke-width="0.5872" d="M31.706 16c0-8.674-7.032-15.706-15.706-15.706s-15.706 7.032-15.706 15.706c0 8.674 7.032 15.706 15.706 15.706"></path>
<path fill="none" stroke="#ff7474" style="stroke: var(--color4, #ff7474)" stroke-linejoin="miter" stroke-linecap="butt" stroke-miterlimit="4" stroke-width="0.5872" d="M13.725 12.059l6.826 3.941-6.826 3.941v-7.882z"></path>
</symbol>
<symbol id="iconPlay" viewBox="0 0 32 32">
<path fill="none" stroke="#fff" style="stroke: var(--color3, #fff)" stroke-linejoin="miter" stroke-linecap="butt" stroke-miterlimit="4" stroke-width="0.8421" d="M16 31.515c8.569 0 15.515-6.946 15.515-15.515s-6.946-15.515-15.515-15.515c-8.569 0-15.515 6.946-15.515 15.515s6.946 15.515 15.515 15.515z"></path>
<path fill="none" stroke="#fff" style="stroke: var(--color3, #fff)" stroke-linejoin="miter" stroke-linecap="butt" stroke-miterlimit="4" stroke-width="0.8421" d="M13.746 11.816l7.906 4.564-7.906 4.564v-9.129z"></path>
</symbol>
<symbol id="iconTwit" viewBox="0 0 38 32">
<path  d="M36.854 5.159c-1.335 0.574-2.671 0.933-4.005 1.077 1.507-0.904 2.527-2.182 3.058-3.833-1.379 0.818-2.85 1.378-4.415 1.68-1.379-1.464-3.072-2.197-5.083-2.197-1.924 0-3.564 0.678-4.921 2.035s-2.035 2.997-2.035 4.921c0 0.517 0.057 1.048 0.172 1.594-2.843-0.144-5.51-0.858-8.001-2.143s-4.605-2.997-6.342-5.136c-0.632 1.077-0.948 2.247-0.948 3.51 0 1.192 0.28 2.297 0.84 3.317s1.314 1.845 2.261 2.476c-1.12-0.043-2.168-0.338-3.144-0.883v0.086c0 1.68 0.528 3.155 1.583 4.426s2.387 2.071 3.995 2.401c-0.603 0.158-1.213 0.237-1.831 0.237-0.402 0-0.84-0.036-1.314-0.107 0.445 1.392 1.263 2.537 2.455 3.435s2.541 1.36 4.049 1.389c-2.527 1.981-5.405 2.971-8.636 2.971-0.617 0-1.177-0.028-1.68-0.086 3.23 2.081 6.791 3.122 10.682 3.122 2.469 0 4.788-0.391 6.955-1.173 2.168-0.782 4.020-1.83 5.557-3.144s2.861-2.825 3.973-4.533c1.113-1.709 1.941-3.492 2.487-5.351s0.818-3.722 0.818-5.589c0-0.402-0.007-0.703-0.022-0.904 1.364-0.99 2.527-2.189 3.489-3.596z"></path>
</symbol>
<symbol id="iconVK" viewBox="0 0 49 32">
<path d="M48.418 25.955c-0.056-0.121-0.109-0.222-0.157-0.302-0.805-1.45-2.344-3.23-4.616-5.341l-0.048-0.048-0.024-0.024-0.024-0.024h-0.024c-1.031-0.983-1.684-1.644-1.957-1.982-0.5-0.644-0.612-1.297-0.339-1.958 0.193-0.499 0.919-1.554 2.175-3.165 0.661-0.854 1.184-1.538 1.571-2.054 2.787-3.706 3.996-6.074 3.625-7.105l-0.144-0.241c-0.097-0.145-0.347-0.278-0.749-0.399s-0.918-0.141-1.547-0.060l-6.959 0.048c-0.113-0.040-0.274-0.036-0.483 0.012s-0.314 0.073-0.314 0.073l-0.121 0.061-0.096 0.073c-0.081 0.048-0.169 0.133-0.266 0.253s-0.177 0.262-0.241 0.423c-0.758 1.949-1.619 3.762-2.586 5.437-0.596 0.999-1.144 1.865-1.644 2.598s-0.918 1.273-1.256 1.619c-0.339 0.346-0.644 0.624-0.919 0.834-0.274 0.21-0.483 0.298-0.628 0.266s-0.282-0.065-0.411-0.097c-0.225-0.145-0.407-0.342-0.543-0.592-0.138-0.25-0.23-0.564-0.278-0.943s-0.077-0.705-0.085-0.979c-0.008-0.274-0.004-0.661 0.012-1.16s0.024-0.838 0.024-1.015c0-0.612 0.012-1.277 0.036-1.994s0.044-1.285 0.061-1.703c0.017-0.419 0.024-0.862 0.024-1.329s-0.029-0.834-0.085-1.1c-0.055-0.266-0.141-0.523-0.253-0.773s-0.279-0.443-0.495-0.58c-0.218-0.137-0.488-0.246-0.81-0.326-0.854-0.193-1.941-0.298-3.263-0.314-2.996-0.032-4.922 0.161-5.776 0.58-0.338 0.177-0.644 0.419-0.918 0.725-0.29 0.355-0.331 0.548-0.121 0.58 0.967 0.145 1.651 0.491 2.054 1.039l0.145 0.29c0.113 0.209 0.226 0.58 0.338 1.112s0.185 1.12 0.217 1.764c0.080 1.176 0.080 2.183 0 3.021s-0.157 1.49-0.23 1.957-0.181 0.846-0.326 1.136c-0.145 0.29-0.242 0.467-0.29 0.532s-0.089 0.105-0.121 0.121c-0.209 0.080-0.427 0.121-0.653 0.121s-0.499-0.113-0.822-0.339c-0.322-0.226-0.656-0.536-1.003-0.93s-0.737-0.947-1.172-1.655c-0.435-0.709-0.886-1.546-1.353-2.513l-0.387-0.701c-0.242-0.451-0.572-1.108-0.991-1.969s-0.79-1.696-1.112-2.502c-0.129-0.338-0.322-0.596-0.58-0.773l-0.121-0.073c-0.080-0.064-0.21-0.133-0.387-0.205s-0.362-0.125-0.556-0.157l-6.621 0.048c-0.677 0-1.136 0.153-1.377 0.459l-0.097 0.145c-0.048 0.081-0.073 0.21-0.073 0.387s0.048 0.395 0.145 0.652c0.967 2.272 2.018 4.463 3.153 6.573s2.123 3.811 2.96 5.099c0.838 1.289 1.692 2.506 2.562 3.649s1.446 1.877 1.728 2.199c0.282 0.323 0.504 0.564 0.665 0.725l0.604 0.58c0.387 0.387 0.954 0.85 1.704 1.389s1.579 1.071 2.489 1.595c0.91 0.523 1.97 0.95 3.178 1.28s2.384 0.463 3.528 0.399h2.779c0.563-0.049 0.991-0.226 1.281-0.532l0.096-0.121c0.065-0.096 0.125-0.245 0.181-0.447s0.085-0.423 0.085-0.664c-0.017-0.693 0.036-1.317 0.157-1.872s0.258-0.974 0.411-1.257c0.153-0.282 0.327-0.52 0.519-0.713s0.331-0.31 0.412-0.351c0.080-0.041 0.144-0.068 0.192-0.085 0.387-0.129 0.842-0.004 1.366 0.375s1.015 0.846 1.474 1.402c0.459 0.556 1.011 1.18 1.655 1.873s1.209 1.208 1.692 1.547l0.483 0.29c0.323 0.193 0.742 0.371 1.257 0.532s0.966 0.201 1.353 0.121l6.186-0.096c0.612 0 1.088-0.101 1.426-0.303s0.54-0.423 0.604-0.664c0.065-0.241 0.068-0.516 0.012-0.822-0.057-0.306-0.114-0.519-0.17-0.64z"></path>
</symbol>
<symbol id="iconYou" viewBox="0 0 38 32">
<path d="M36.724 4.197c-1.379-1.64-3.926-2.309-8.79-2.309h-17.655c-4.975 0-7.565 0.712-8.939 2.458-1.34 1.702-1.34 4.21-1.34 7.681v6.616c0 6.724 1.59 10.139 10.279 10.139h17.655c4.218 0 6.555-0.59 8.067-2.037 1.551-1.484 2.212-3.907 2.212-8.101v-6.616c0-3.66-0.104-6.183-1.489-7.83zM24.534 16.248l-8.017 4.19c-0.179 0.094-0.375 0.14-0.571 0.14-0.222 0-0.443-0.060-0.639-0.178-0.369-0.223-0.594-0.623-0.594-1.054v-8.353c0-0.43 0.225-0.83 0.593-1.053s0.826-0.239 1.208-0.040l8.017 4.163c0.408 0.212 0.664 0.633 0.665 1.092s-0.255 0.881-0.662 1.094z"></path>
</symbol>
    <symbol id="icon-cross" viewBox="0 0 32 32">
        <path d="M31.708 25.708c-0-0-0-0-0-0l-9.708-9.708 9.708-9.708c0-0 0-0 0-0 0.105-0.105 0.18-0.227 0.229-0.357 0.133-0.356 0.057-0.771-0.229-1.057l-4.586-4.586c-0.286-0.286-0.702-0.361-1.057-0.229-0.13 0.048-0.252 0.124-0.357 0.228 0 0-0 0-0 0l-9.708 9.708-9.708-9.708c-0-0-0-0-0-0-0.105-0.104-0.227-0.18-0.357-0.228-0.356-0.133-0.771-0.057-1.057 0.229l-4.586 4.586c-0.286 0.286-0.361 0.702-0.229 1.057 0.049 0.13 0.124 0.252 0.229 0.357 0 0 0 0 0 0l9.708 9.708-9.708 9.708c-0 0-0 0-0 0-0.104 0.105-0.18 0.227-0.229 0.357-0.133 0.355-0.057 0.771 0.229 1.057l4.586 4.586c0.286 0.286 0.702 0.361 1.057 0.229 0.13-0.049 0.252-0.124 0.357-0.229 0-0 0-0 0-0l9.708-9.708 9.708 9.708c0 0 0 0 0 0 0.105 0.105 0.227 0.18 0.357 0.229 0.356 0.133 0.771 0.057 1.057-0.229l4.586-4.586c0.286-0.286 0.362-0.702 0.229-1.057-0.049-0.13-0.124-0.252-0.229-0.357z"></path>
    </symbol>
</defs>
</svg>
